<svg
              xmlns="http://www.w3.org/2000/svg"
              viewBox="0 0 106 48"
              fill="none"
              class="w-[120px]"
            >
              <g clip-path="url(#clip0_1016_5351)">
                <path
                  d="M21.7618 9.17832C21.9156 8.97237 22.0694 8.76641 22.2104 8.56046C23.4151 6.87422 25.1452 6.42369 27.0804 6.5138C27.5161 6.53954 27.2342 6.93858 27.4136 7.20889C31.0789 2.1759 36.013 -0.38564 42.2159 0.0520106C48.4188 0.476789 52.9172 3.70768 55.8136 9.21693C58.5433 5.76722 63.4005 5.47116 65.8099 9.30704C65.9124 8.76641 65.8484 8.31589 65.8612 7.87824C65.8612 6.96432 65.7715 7.0673 66.6814 7.0673C67.7323 7.0673 68.7704 7.0673 69.8213 7.0673C70.4108 7.0673 70.4236 7.0673 70.4236 7.67228C70.4236 10.4269 70.4493 13.1815 70.4493 15.9362C70.4621 19.6176 70.4621 23.299 70.4877 26.9933C70.5005 28.5637 70.3339 30.1083 69.7059 31.5757C68.4756 34.4205 66.2713 35.9651 63.2467 36.3899C61.5422 36.6345 59.9018 36.4285 58.3255 35.7592C54.8267 34.266 53.7118 31.0094 53.6477 28.5894C53.6477 28.229 53.7502 28.126 54.0962 28.126C55.1856 28.1389 56.2877 28.1389 57.3771 28.126C57.7359 28.126 57.9025 28.2161 57.9025 28.6152C57.9025 29.3617 58.1589 30.0568 58.633 30.6361C59.4148 31.6144 60.4913 31.949 61.6704 31.9362C64.131 31.9104 66.0022 30.1984 65.9509 27.6626C65.9253 26.6972 65.9509 25.7318 65.9509 24.7922C65.7715 24.7407 65.7587 24.8308 65.7202 24.8823C64.8103 26.4398 63.3749 27.0576 61.6576 27.1735C59.0816 27.3408 57.0054 26.414 55.4803 24.303C55.4419 24.2387 55.4034 24.1872 55.3009 24.0327C52.6224 28.5122 48.7905 31.2025 43.7538 32.1035C40.2935 32.7214 36.9742 32.1679 33.8343 30.649C31.5916 29.5677 29.7076 28.0231 28.1697 26.0407C26.6318 24.0456 25.6322 21.8058 25.1067 19.3215C24.5941 16.863 24.6838 14.4301 25.3374 12.0359C25.1324 11.8428 24.9401 11.9329 24.7607 11.9716C23.2869 12.332 22.3257 13.4776 22.0694 15.1638C21.9925 15.7173 21.9412 16.2708 21.9412 16.8372C21.9669 19.9651 21.9925 23.0802 22.0053 26.2081C22.0053 26.3754 22.0053 26.5428 22.0053 26.723C22.0053 26.9418 21.89 27.019 21.6977 27.019C20.3905 27.019 19.0705 27.019 17.7633 27.019C17.43 27.019 17.4429 26.7873 17.4429 26.5685C17.4429 25.2813 17.43 23.9812 17.4172 22.694C17.4044 17.7383 17.3788 12.7954 17.366 7.83962C17.366 7.73665 17.366 7.64654 17.366 7.54356C17.3275 7.20889 17.43 7.05442 17.8017 7.0673C18.9167 7.09304 20.0317 7.09304 21.1466 7.0673C21.5568 7.0673 21.6336 7.23463 21.6208 7.58218C21.5952 8.10994 21.6208 8.63769 21.6208 9.16545C21.6465 9.16545 21.6849 9.16545 21.7234 9.19119M52.2251 16.1292C52.2507 15.2025 52.161 14.2242 51.8919 13.2845C50.2643 7.56931 44.5612 4.08097 38.7556 5.2652C36.3591 5.75434 34.3085 6.9257 32.6681 8.76641C30.0409 11.7141 29.1694 15.1638 30.169 18.9611C31.5403 24.1872 36.6923 28.0745 42.8952 27.0963C48.406 26.2081 52.3533 21.2781 52.2251 16.1292ZM58.3255 16.9016C58.3255 17.365 58.287 17.8284 58.3255 18.2918C58.4408 19.579 58.7996 20.7761 59.6455 21.793C61.0424 23.4535 63.2852 23.4792 64.7206 21.8316C65.246 21.2266 65.5664 20.5315 65.7715 19.772C66.1688 18.2016 66.0791 16.6313 65.8227 15.048C65.6946 14.2242 65.4639 13.4261 65.0282 12.7181C64.4514 11.7914 63.6312 11.2507 62.5419 11.1606C60.6708 11.0062 59.4276 11.8171 58.7868 13.5934C58.4024 14.6618 58.2998 15.7817 58.3383 16.9016"
                  fill="#0E7673"
                ></path>
                <path
                  d="M84.4698 24.764C84.2903 24.7254 84.2647 24.8026 84.2391 24.8541C83.3292 26.4116 81.8938 27.0295 80.1764 27.1453C76.4727 27.377 74.2043 25.3046 73.1149 22.5886C72.2306 20.3746 71.9999 18.0576 72.1409 15.6892C72.2434 14.1188 72.5895 12.5999 73.2302 11.1711C73.7941 9.90961 74.5631 8.78973 75.6524 7.92731C77.1006 6.78169 78.7154 6.30542 80.5609 6.60148C81.9066 6.82031 82.9575 7.48965 83.7777 8.55804C83.9315 8.76399 84.0853 8.98282 84.3288 9.30462C84.4313 8.68676 84.3672 8.19762 84.38 7.70848C84.38 7.052 84.3801 7.052 85.0593 7.052C86.1743 7.052 87.2893 7.052 88.4042 7.052C88.9169 7.052 88.9297 7.052 88.9297 7.57976C88.9425 10.3859 88.9553 13.192 88.9681 15.9981C88.9681 19.6538 88.9681 23.3223 89.0066 26.978C89.0066 28.5484 88.8528 30.093 88.2248 31.5476C86.9945 34.3923 84.7773 35.937 81.7656 36.3617C80.0227 36.6063 78.3181 36.4132 76.7162 35.6538C73.7301 34.2507 72.3588 31.7793 72.1793 28.5484C72.1537 28.188 72.2819 28.085 72.6279 28.085C73.7173 28.0979 74.8194 28.0979 75.9088 28.085C76.2676 28.085 76.4342 28.1751 76.4342 28.5741C76.4342 29.295 76.6777 29.9643 77.1135 30.5436C77.8952 31.5604 78.9846 31.908 80.2021 31.8951C82.6499 31.8694 84.5338 30.1703 84.4698 27.6216C84.4441 26.6691 84.4698 25.7037 84.4698 24.764ZM84.5851 17.3239C84.521 15.9981 84.4441 14.5822 83.8674 13.2563C83.2523 11.8404 82.1885 11.0938 80.625 11.1196C79.0615 11.1325 78.0106 11.8919 77.4338 13.3336C77.3313 13.5781 77.2416 13.8356 77.1775 14.093C76.7802 15.5991 76.7546 17.1308 76.9469 18.6626C77.1006 19.937 77.5492 21.1212 78.4719 22.0609C79.7407 23.3352 81.6887 23.3609 82.9959 22.1123C83.5598 21.5846 83.9315 20.941 84.1878 20.2073C84.4954 19.3062 84.5979 18.3537 84.5979 17.3239"
                  fill="#0E7673"
                ></path>
                <path
                  d="M10.9324 25.3049C9.94554 26.4119 8.83056 27.0684 7.51053 27.3516C6.15205 27.6477 4.80638 27.6219 3.47353 27.2358C1.44863 26.6436 0.410541 25.1634 0.10296 23.1553C-0.089278 21.9453 -0.0251986 20.7225 0.282382 19.5254C0.679674 17.9807 1.60242 16.8351 3.03779 16.14C4.19122 15.5737 5.43436 15.3806 6.66468 15.136C7.39519 14.9815 8.13851 14.8528 8.88183 14.6984C9.08688 14.6597 9.30475 14.5825 9.5098 14.5053C10.2403 14.2478 10.676 13.7587 10.7273 12.9477C10.7914 12.0853 10.5351 11.4031 9.74049 11.0041C8.63832 10.4506 7.49771 10.4248 6.3571 10.8496C5.93418 11.0041 5.6266 11.313 5.3831 11.6992C5.11396 12.1368 4.90891 12.6131 4.84483 13.128C4.80638 13.4111 4.69104 13.5527 4.38346 13.5399C3.24285 13.527 2.10223 13.527 0.961623 13.5399C0.589963 13.5399 0.500252 13.3983 0.538699 13.0636C0.62841 12.4071 0.679674 11.7506 0.833464 11.1199C1.37173 8.97027 2.70458 7.56722 4.8192 6.94936C6.81847 6.35724 8.84338 6.34437 10.8555 6.85925C13.4827 7.5286 14.7771 9.36931 15.2129 11.9566C15.4051 13.0636 15.4051 14.1963 15.4051 15.3162C15.4307 18.9204 15.4564 22.5374 15.482 26.1416C15.482 26.309 15.482 26.4763 15.482 26.6565C15.4948 26.8882 15.4179 27.0169 15.1616 27.0169C13.9441 27.0169 12.7394 27.0169 11.5219 27.0169C11.2656 27.0169 11.1887 26.8625 11.1502 26.6565C11.0733 26.2575 11.0093 25.8456 10.9195 25.3178M10.8811 17.3371C10.3813 17.6589 9.97117 17.8906 9.49699 18.0193C9.00998 18.1481 8.51017 18.2639 8.02316 18.3926C7.45927 18.5471 6.89537 18.6758 6.3571 18.9075C5.01144 19.4739 4.52443 20.2205 4.56288 21.6621C4.60133 23.0137 5.3062 23.7217 6.65187 23.7603C8.52298 23.8118 10.1762 22.5375 10.7017 20.6195C10.9836 19.564 10.817 18.5085 10.8811 17.3371Z"
                  fill="#0E7673"
                ></path>
                <path
                  d="M101.45 25.345C101.13 25.641 100.899 25.8856 100.643 26.0916C99.1432 27.3144 97.3874 27.6491 95.5163 27.5075C95.183 27.4818 94.837 27.4431 94.5038 27.3659C92.3123 26.9025 90.9025 25.3836 90.6078 23.1052C90.454 21.9468 90.4924 20.7625 90.7744 19.6169C91.1717 18.0079 92.1072 16.8365 93.6067 16.1157C94.7345 15.5751 95.9648 15.382 97.1695 15.1374C97.9 14.983 98.6433 14.8542 99.3867 14.6998C99.5917 14.6612 99.8096 14.5839 100.015 14.5196C100.784 14.2621 101.207 13.7472 101.258 12.9106C101.309 12.0353 101.014 11.3788 100.22 10.9926C99.1431 10.4777 98.0154 10.4262 96.9004 10.851C96.0161 11.1857 95.6701 11.9838 95.4266 12.8205C95.2215 13.5284 95.2343 13.5413 94.4782 13.5413C93.5042 13.5413 92.543 13.5413 91.569 13.5413C91.0307 13.5413 91.0179 13.5284 91.0692 13.0264C91.1332 12.4729 91.1973 11.9194 91.3127 11.3659C91.7868 9.07467 93.1581 7.59438 95.3881 6.95078C97.3617 6.38441 99.3738 6.35866 101.36 6.86068C104.013 7.53002 105.32 9.39648 105.743 12.0095C105.923 13.1036 105.923 14.1978 105.936 15.2919C105.961 18.9218 105.987 22.5517 106.012 26.1945C106.012 26.3361 106.012 26.4906 106.012 26.6322C106.038 26.9154 105.923 27.0184 105.641 27.0184C104.475 27.0184 103.308 27.0184 102.142 27.0184C101.834 27.0184 101.706 26.9025 101.668 26.6065C101.617 26.2203 101.553 25.847 101.463 25.3579M101.399 17.3514C100.502 17.9822 99.5533 18.1624 98.6177 18.3941C98.0282 18.5357 97.4515 18.6901 96.8876 18.9218C95.5291 19.5011 95.0293 20.2734 95.0933 21.7537C95.1446 23.0151 95.8367 23.7102 97.1054 23.7746C99.0022 23.8647 100.694 22.5646 101.219 20.6338C101.501 19.5783 101.335 18.5228 101.399 17.3643"
                  fill="#0E7673"
                ></path>
                <path
                  d="M38.4221 10.2844C38.4221 9.35764 38.4221 8.43085 38.4221 7.50406C38.4221 7.19513 38.499 7.06641 38.8322 7.06641C40.2932 7.06641 41.7414 7.07928 43.2024 7.06641C43.5741 7.06641 43.6381 7.22087 43.6381 7.54267C43.6381 9.31902 43.6381 11.0954 43.6381 12.8846C43.6381 13.6312 43.5869 13.5797 44.3558 13.5797C46.0732 13.5797 47.8033 13.5797 49.5206 13.5797C50.0845 13.5797 50.0845 13.5797 50.0973 14.1332C50.0973 15.5234 50.0973 16.9136 50.0973 18.3037C50.0973 18.6899 49.9692 18.7929 49.5975 18.7929C47.8033 18.78 46.0091 18.7929 44.2149 18.7929C43.5997 18.7929 43.6253 18.7671 43.6253 19.3979C43.6253 21.1485 43.6253 22.9119 43.6253 24.6625C43.6253 25.2289 43.6253 25.2289 43.0742 25.2418C41.7158 25.2418 40.3573 25.2418 38.9988 25.2418C38.4221 25.2418 38.4221 25.2418 38.4221 24.6239C38.4221 22.8733 38.4221 21.1098 38.4221 19.3592C38.4221 18.8057 38.4221 18.8057 37.871 18.8057C36.1024 18.8057 34.321 18.8057 32.5524 18.8057C31.9629 18.8057 31.9629 18.8057 31.9629 18.2136C31.9629 16.8749 31.9629 15.5362 31.9629 14.1975C31.9629 13.6183 31.9629 13.6054 32.5781 13.6054C34.321 13.6054 36.0768 13.6054 37.8197 13.6054C38.4093 13.6054 38.4221 13.6054 38.4221 13.0133C38.4349 12.1123 38.4221 11.2112 38.4221 10.3102"
                  fill="#E8292F"
                ></path>
                <path
                  d="M29.1557 40.9597C27.8613 40.5607 26.7079 40.8696 25.8108 41.938C25.7595 42.0023 25.7082 42.1053 25.5288 42.0924C25.4135 41.8221 25.4647 41.5518 25.4647 41.2944C25.4647 40.2646 25.4647 39.2477 25.4647 38.2179C25.4647 37.9991 25.3622 37.9219 25.1571 37.9219C24.9649 37.9219 24.8239 37.9605 24.8367 38.2051C24.8367 38.3724 24.8367 38.5397 24.8367 38.7199V46.4818C24.8367 46.868 24.8367 47.267 24.8367 47.6532C24.8367 47.9106 24.9393 48.0007 25.1828 47.9878C25.4263 47.9878 25.4391 47.8463 25.4519 47.6532C25.4647 47.3442 25.375 46.9967 25.5801 46.6105C25.721 46.765 25.7979 46.8422 25.8748 46.9323C27.1821 48.5671 30.2194 48.3611 31.1678 45.9154C31.4497 45.1946 31.501 44.4351 31.3857 43.6886C31.1806 42.3499 30.4757 41.3587 29.1557 40.9468M30.3732 46.0442C29.3736 47.8076 26.8745 47.8076 25.8876 46.0442C25.2853 44.9629 25.2853 43.843 25.8748 42.7618C26.349 41.8736 27.118 41.4231 28.1432 41.436C29.1813 41.436 29.9631 41.9122 30.4373 42.839C30.9884 43.9074 30.9755 45.0144 30.386 46.057"
                  fill="#0E7673"
                ></path>
                <path
                  d="M88.0067 40.793C87.7632 40.793 87.6607 40.8959 87.6607 41.1405C87.6607 41.4881 87.6607 41.8356 87.6607 42.196C87.43 42.1703 87.3787 42.0416 87.3146 41.9515C85.9305 40.1236 82.8932 40.4969 81.9704 42.8268C81.7013 43.4961 81.6116 44.2041 81.7141 44.912C81.9063 46.3022 82.5856 47.3577 83.9697 47.7825C85.3282 48.1944 86.5072 47.8855 87.4172 46.727C87.4556 46.6755 87.5197 46.6498 87.6735 46.521C87.6735 46.9716 87.6735 47.3191 87.6735 47.6667C87.6735 47.9112 87.8145 47.937 88.0067 47.937C88.1605 47.937 88.2887 47.8984 88.3015 47.7053C88.3015 47.5379 88.3015 47.3706 88.3015 47.1904V42.3634C88.3015 41.9515 88.3015 41.5395 88.3015 41.1148C88.3015 40.9088 88.2246 40.793 88.0067 40.793ZM87.5197 45.3754C87.1609 46.5983 86.174 47.3577 84.9437 47.332C83.7646 47.3191 82.7778 46.5339 82.4574 45.3368C82.2908 44.6932 82.278 44.0239 82.4574 43.3803C82.8291 42.0673 83.9184 41.3336 85.2513 41.4366C86.4944 41.5395 87.4556 42.5436 87.6094 43.9209C87.635 44.0882 87.6222 44.2556 87.635 44.4358C87.635 44.7576 87.5838 45.0665 87.4941 45.3754"
                  fill="#0E7673"
                ></path>
                <path
                  d="M105.552 45.6323C105.539 44.7827 105.616 43.9331 105.475 43.0836C105.231 41.5003 104.065 40.625 102.476 40.8181C101.617 40.9211 100.938 41.333 100.361 42.0667C100.182 41.7191 100.233 41.4617 100.233 41.23C100.233 40.2517 100.233 39.2863 100.233 38.308C100.233 38.1021 100.233 37.9219 99.951 37.9219C99.6306 37.9219 99.5922 38.0892 99.6178 38.3338V47.473C99.6178 47.5502 99.6178 47.6146 99.6178 47.6918C99.6178 47.8849 99.7203 47.9235 99.887 47.9364C100.195 47.9621 100.246 47.7948 100.246 47.5373C100.246 46.4818 100.246 45.4392 100.246 44.3965C100.246 43.9074 100.284 43.4183 100.464 42.9549C100.887 41.8221 101.899 41.2686 103.219 41.4617C104.232 41.6162 104.834 42.3756 104.885 43.6113C104.898 43.8817 104.885 44.152 104.885 44.4094C104.885 45.4134 104.885 46.4046 104.885 47.4086C104.885 47.6274 104.783 47.9106 105.193 47.9364C105.641 47.9492 105.539 47.6403 105.552 47.3829C105.552 46.7907 105.552 46.2115 105.552 45.6194"
                  fill="#0E7673"
                ></path>
                <path
                  d="M36.1151 40.8056C34.6412 40.6511 33.2956 41.5908 32.8214 43.1226C32.6035 43.8305 32.5779 44.5771 32.7317 45.2851C33.0008 46.5079 33.7057 47.409 34.9232 47.7823C36.1022 48.1427 37.23 48.0397 38.204 47.203C38.6013 46.8683 38.5885 46.8555 38.1784 46.4436C36.4226 48.207 33.6929 47.1515 33.4365 45.298C34.0645 45.0534 34.7438 44.989 35.3974 44.8474C36.4355 44.6157 37.4864 44.4098 38.5244 44.2038C38.8192 44.1395 38.9986 44.0622 38.9474 43.6761C38.7423 42.1314 37.6017 40.9472 36.1022 40.7927M37.999 43.779C36.4611 44.088 34.9104 44.4098 33.2956 44.7445C33.1802 43.8949 33.3212 43.1869 33.7313 42.5562C34.3208 41.6423 35.1923 41.3076 36.2432 41.4621C37.2685 41.6165 37.858 42.273 38.1912 43.2127C38.2681 43.4315 38.3706 43.7018 37.9862 43.779"
                  fill="#0E7673"
                ></path>
                <path
                  d="M53.775 40.9217C52.455 40.5355 51.0837 41.0375 50.3275 42.1703C49.7764 42.9941 49.6355 43.9209 49.738 44.8991C49.9431 46.7399 51.2759 47.9627 53.2624 47.9756C53.9288 47.9756 54.6849 47.7696 55.3001 47.1904C55.4667 47.0359 55.6974 46.8943 55.4411 46.5983C55.1719 46.3022 55.0822 46.6111 54.9412 46.727C54.0313 47.4349 53.0445 47.5379 51.9936 47.1389C51.2759 46.8686 50.8145 46.3151 50.5326 45.5942C50.4557 45.3883 50.507 45.2596 50.7248 45.2209C51.058 45.1566 51.3912 45.0794 51.7245 45.015C53.006 44.7576 54.2876 44.5001 55.5692 44.2298C55.7871 44.1783 56.069 44.1912 56.0178 43.805C55.8512 42.5049 55.1078 41.3078 53.775 40.9217ZM55.0822 43.7921C54.8772 43.8436 54.6593 43.8822 54.4414 43.9337C53.1086 44.2041 51.7757 44.4744 50.3916 44.7576C50.2634 43.9209 50.3916 43.2129 50.8145 42.5822C51.4041 41.6683 52.2755 41.3336 53.3264 41.4752C54.3517 41.6296 54.9541 42.2861 55.2745 43.2258C55.3513 43.4446 55.4667 43.7149 55.0822 43.805"
                  fill="#0E7673"
                ></path>
                <path
                  d="M72.1016 43.0949C71.8453 41.473 70.6662 40.6106 69.0386 40.8165C68.1927 40.9324 67.552 41.3314 66.9881 42.0522C66.7958 41.7304 66.8471 41.473 66.8471 41.2413C66.8471 40.2373 66.8471 39.2461 66.8471 38.2421C66.8471 37.9847 66.7446 37.8946 66.501 37.9074C66.2832 37.9074 66.1935 38.0104 66.2191 38.2292C66.2191 38.3065 66.2191 38.3708 66.2191 38.4481V47.3684C66.2191 47.4714 66.2191 47.5615 66.2191 47.6645C66.2191 47.8962 66.3601 47.9219 66.5395 47.9348C66.8214 47.9477 66.8343 47.7675 66.8343 47.5615C66.8343 46.506 66.8343 45.4634 66.8343 44.4207C66.8343 43.9058 66.8727 43.3909 67.0649 42.9147C67.5007 41.7948 68.5388 41.2542 69.8588 41.473C70.8328 41.6403 71.4223 42.3998 71.4736 43.5969C71.4864 43.9831 71.4736 44.3821 71.4736 44.7683V47.5486C71.4736 47.7546 71.4736 47.9348 71.7556 47.9477C72.0375 47.9477 72.14 47.8447 72.14 47.5615C72.14 46.7763 72.14 46.004 72.14 45.2188C72.14 44.5108 72.1913 43.8029 72.076 43.0949"
                  fill="#0E7673"
                ></path>
                <path
                  d="M77.7414 40.8308C76.3445 40.6248 75.0244 41.3714 74.4349 42.6972C74.1273 43.4052 74.0248 44.1518 74.1273 44.9112C74.5118 47.7173 77.1134 48.4639 78.9461 47.6787C79.3049 47.5242 79.6253 47.2925 79.8816 46.9965C80.0226 46.8291 79.9457 46.7004 79.8176 46.5588C79.6766 46.3915 79.5741 46.4945 79.4587 46.5975C79.369 46.6747 79.2793 46.7648 79.1896 46.842C77.7414 47.8847 75.3192 47.3054 74.9091 45.336C75.1013 45.1944 75.2936 45.1815 75.4858 45.1429C76.9596 44.8469 78.4334 44.5379 79.9073 44.2419C80.4583 44.126 80.4584 44.1131 80.3815 43.5725C80.1892 42.1437 79.1255 41.0496 77.7414 40.8308ZM79.4715 43.7913C78.0233 44.0874 76.588 44.3963 75.1398 44.6795C74.9347 44.7181 74.7297 44.7439 74.7297 44.4478C74.6912 42.8645 75.6396 41.3971 77.3569 41.4229C78.5232 41.4229 79.5228 42.2596 79.7535 43.3794C79.8047 43.6369 79.7022 43.7398 79.4843 43.7785"
                  fill="#0E7673"
                ></path>
                <path
                  d="M11.3678 40.7933C9.86836 40.7161 8.53551 41.6944 8.09977 43.1875C7.86909 43.9727 7.86909 44.7708 8.09977 45.5689C8.5227 47.0492 9.76583 47.9759 11.5601 47.9631C12.675 47.9245 13.6619 47.2809 14.2514 45.9936C14.6102 45.2085 14.6359 44.3846 14.4949 43.5608C14.2386 41.9904 12.957 40.8577 11.3806 40.7933M13.649 45.7491C13.1749 46.766 12.4059 47.3323 11.2653 47.3452C10.1247 47.3452 9.34291 46.7788 8.88154 45.762C8.53551 44.9768 8.5227 44.1529 8.7662 43.342C9.16349 42.029 10.24 41.334 11.5857 41.4627C12.7904 41.5785 13.7131 42.5697 13.8925 43.9084C13.9182 44.0757 13.9182 44.243 13.9182 44.4233C13.9182 44.8866 13.8285 45.3372 13.6362 45.762"
                  fill="#0E7673"
                ></path>
                <path
                  d="M7.31737 38.9909C7.18921 38.9137 7.07387 38.8365 6.94571 38.7721C6.20239 38.3988 5.42062 38.3344 4.61323 38.3731C2.76774 38.4632 1.65276 39.4929 1.58868 41.3465C1.5246 43.4189 1.57587 45.4913 1.56305 47.5509C1.56305 47.834 1.65276 47.937 1.93471 47.937C2.21666 47.937 2.24229 47.7826 2.24229 47.5637C2.24229 46.8558 2.24229 46.1478 2.24229 45.4398C2.24229 44.8863 2.17821 44.32 2.30637 43.715C3.54951 43.715 4.77983 43.715 6.01016 43.715C6.24084 43.715 6.66376 43.9081 6.62532 43.3803C6.59968 42.9298 6.24084 43.1229 6.01016 43.11C4.94644 43.0971 3.86991 43.11 2.80619 43.11C2.1654 43.11 2.22948 43.11 2.22948 42.505C2.22948 42.0931 2.22948 41.6812 2.24229 41.2693C2.31919 39.9306 3.12659 39.1196 4.45944 39.0167C5.34373 38.9394 6.20239 39.0295 6.97134 39.5444C7.0995 39.6345 7.24048 39.7118 7.33019 39.5187C7.40708 39.3513 7.56087 39.1711 7.30456 39.0167"
                  fill="#0E7673"
                ></path>
                <path
                  d="M48.4179 47.1238C48.3154 47.1881 48.2129 47.2396 48.0975 47.2782C47.1876 47.5614 46.4443 47.0851 46.4187 46.1455C46.3802 44.7038 46.4187 43.275 46.4058 41.8333C46.4058 41.5501 46.4955 41.4472 46.7775 41.4472C47.2389 41.46 47.7002 41.4472 48.1616 41.4472C48.4307 41.46 48.4948 41.3313 48.4948 41.0996C48.4948 40.8679 48.3667 40.8164 48.1744 40.8164C47.6874 40.8164 47.2004 40.8164 46.7262 40.8164C46.5212 40.8164 46.4187 40.7263 46.4187 40.5204C46.4187 40.2114 46.4187 39.8896 46.4187 39.5678C46.4187 39.2975 46.0854 39.1173 45.8676 39.2718C45.701 39.4005 45.765 39.5807 45.765 39.748C45.765 41.7947 45.765 43.8414 45.765 45.8752C45.765 46.0425 45.7779 46.2098 45.8035 46.39C45.9573 47.4198 46.5468 47.9347 47.5721 47.9347C47.995 47.9347 48.3923 47.8446 48.7383 47.6C48.9306 47.4584 48.8793 47.3297 48.7896 47.1624C48.6871 46.9693 48.5845 47.0079 48.4307 47.098"
                  fill="#0E7673"
                ></path>
                <path
                  d="M43.5615 47.1137C43.5615 47.1137 43.4334 47.1909 43.3693 47.2167C42.3184 47.6286 41.5366 47.1652 41.4982 46.0453C41.4597 44.6551 41.4982 43.2649 41.4854 41.8748C41.4854 41.5401 41.6263 41.4628 41.9211 41.4628C42.3825 41.4628 42.8439 41.4628 43.3052 41.4628C43.5103 41.4628 43.6128 41.3856 43.6128 41.1668C43.6128 40.9608 43.5487 40.845 43.3309 40.845C43.0617 40.845 42.7926 40.845 42.5363 40.845C41.37 40.845 41.511 40.9608 41.4982 39.8538C41.4982 39.7766 41.4982 39.7122 41.4982 39.635C41.4982 39.4162 41.4726 39.2617 41.1906 39.2617C40.9215 39.2617 40.8702 39.3904 40.8702 39.6221C40.8702 41.8361 40.8574 44.063 40.8958 46.277C40.9087 47.3583 41.6135 47.9761 42.6901 47.9632C43.113 47.9632 43.5103 47.8731 43.8563 47.6157C43.9973 47.5127 44.0101 47.384 43.9204 47.2295C43.8435 47.1008 43.741 46.9978 43.5744 47.1137"
                  fill="#0E7673"
                ></path>
                <path
                  d="M97.324 47.1247C97.324 47.1247 97.1959 47.202 97.1318 47.2277C96.1193 47.6139 95.3376 47.1505 95.2991 46.0821C95.2479 44.6662 95.2991 43.2502 95.2735 41.8343C95.2735 41.5511 95.376 41.4481 95.658 41.461C96.0937 41.4739 96.5294 41.461 96.9652 41.461C97.1959 41.461 97.4009 41.461 97.4009 41.1392C97.4009 40.7788 97.1446 40.856 96.9395 40.856C96.5294 40.856 96.1193 40.856 95.6964 40.856C95.3888 40.856 95.2607 40.7402 95.2735 40.4184C95.2735 40.1223 95.2735 39.8262 95.2735 39.5431C95.2735 39.3629 95.1966 39.2856 95.0172 39.2727C94.7352 39.247 94.6455 39.3757 94.6455 39.6589C94.6455 40.753 94.6455 41.86 94.6455 42.9542V45.9534C94.6455 46.2237 94.6455 46.494 94.7224 46.7514C95.0556 47.9099 96.6192 48.4119 97.5803 47.6653C97.7469 47.5366 97.7854 47.4079 97.6701 47.2277C97.5803 47.0732 97.465 47.0217 97.3112 47.1376"
                  fill="#0E7673"
                ></path>
                <path
                  d="M92.9789 47.3294C92.0306 47.368 91.6333 47.0205 91.582 46.0808C91.582 45.8877 91.582 45.6946 91.582 45.5016V41.1894C91.582 40.2369 91.582 39.2843 91.582 38.3447C91.582 38.0357 91.5051 37.8813 91.1847 37.9199C90.89 37.9456 90.9284 38.1516 90.9284 38.3447V42.2192L90.9797 46.3769C91.0437 47.5611 91.8768 48.1403 93.0302 47.9472C93.2737 47.9086 93.4403 47.8443 93.4019 47.5353C93.3634 47.2007 93.1584 47.3294 92.9789 47.3423"
                  fill="#0E7673"
                ></path>
                <path
                  d="M60.6962 40.8316C59.876 40.9088 59.248 41.3078 58.7226 42.0544C58.5816 41.6425 58.6457 41.3465 58.6329 41.0633C58.62 40.8316 58.4791 40.793 58.2868 40.793C58.1074 40.793 58.0177 40.8702 58.0049 41.0504C58.0049 41.192 58.0049 41.3465 58.0049 41.4881V43.9724C58.0049 45.1566 58.0049 46.3537 58.0049 47.5379C58.0049 47.8726 58.1459 47.9627 58.4406 47.937C58.7482 47.9112 58.6585 47.6795 58.6713 47.4993C58.6713 46.2893 58.6713 45.0665 58.6969 43.8565C58.7226 42.6852 59.4146 41.4752 60.8244 41.4494C61.1191 41.4494 61.2089 41.3079 61.1704 41.0375C61.132 40.7286 60.9141 40.8058 60.7218 40.8316"
                  fill="#0E7673"
                ></path>
                <path
                  d="M19.3389 40.8058C18.6981 40.8831 18.1214 41.0762 17.6472 41.5653C17.519 41.694 17.455 41.9128 17.2115 41.9386C17.0705 41.6425 17.1602 41.3207 17.1346 41.0118C17.1089 40.8187 16.9936 40.793 16.827 40.793C16.6604 40.793 16.545 40.8316 16.5322 41.0247C16.5322 41.1019 16.5322 41.1663 16.5322 41.2435C16.5322 43.3416 16.5322 45.4269 16.5322 47.5251C16.5322 47.7696 16.5322 47.9498 16.8654 47.937C17.2243 47.937 17.1602 47.6924 17.1602 47.4865C17.1602 46.5597 17.1602 45.6329 17.1602 44.719C17.1602 44.2298 17.1858 43.7407 17.2755 43.2644C17.4934 42.2218 18.1598 41.6039 19.1979 41.4623C19.2748 41.4623 19.3389 41.4623 19.4158 41.4494C19.6465 41.4494 19.6721 41.2692 19.6721 41.089C19.6721 40.8702 19.5568 40.793 19.3517 40.8187"
                  fill="#0E7673"
                ></path>
              </g>
              <defs>
                <clipPath id="clip0_1016_5351">
                  <rect width="106" height="48" fill="white"></rect>
                </clipPath>
              </defs>
            </svg>